<svg id="visual" viewBox="0 0 900 600" width="900" height="600" xmlns="http://www.w3.org/2000/svg" xmlns:xlink="http://www.w3.org/1999/xlink" version="1.1"><path d="M112 0L111.2 14.3C110.3 28.7 108.7 57.3 110 85.8C111.3 114.3 115.7 142.7 121 171.2C126.3 199.7 132.7 228.3 133.5 257C134.3 285.7 129.7 314.3 133.3 343C137 371.7 149 400.3 150.5 428.8C152 457.3 143 485.7 134 514.2C125 542.7 116 571.3 111.5 585.7L107 600L0 600L0 585.7C0 571.3 0 542.7 0 514.2C0 485.7 0 457.3 0 428.8C0 400.3 0 371.7 0 343C0 314.3 0 285.7 0 257C0 228.3 0 199.7 0 171.2C0 142.7 0 114.3 0 85.8C0 57.3 0 28.7 0 14.3L0 0Z" fill="#49133c"></path><path d="M126 0L122.2 14.3C118.3 28.7 110.7 57.3 106.5 85.8C102.3 114.3 101.7 142.7 104.2 171.2C106.7 199.7 112.3 228.3 113.5 257C114.7 285.7 111.3 314.3 106.2 343C101 371.7 94 400.3 91.2 428.8C88.3 457.3 89.7 485.7 94 514.2C98.3 542.7 105.7 571.3 109.3 585.7L113 600L0 600L0 585.7C0 571.3 0 542.7 0 514.2C0 485.7 0 457.3 0 428.8C0 400.3 0 371.7 0 343C0 314.3 0 285.7 0 257C0 228.3 0 199.7 0 171.2C0 142.7 0 114.3 0 85.8C0 57.3 0 28.7 0 14.3L0 0Z" fill="#5c075b"></path><path d="M91 0L92.8 14.3C94.7 28.7 98.3 57.3 97.5 85.8C96.7 114.3 91.3 142.7 89.2 171.2C87 199.7 88 228.3 88.3 257C88.7 285.7 88.3 314.3 88 343C87.7 371.7 87.3 400.3 86.5 428.8C85.7 457.3 84.3 485.7 84.3 514.2C84.3 542.7 85.7 571.3 86.3 585.7L87 600L0 600L0 585.7C0 571.3 0 542.7 0 514.2C0 485.7 0 457.3 0 428.8C0 400.3 0 371.7 0 343C0 314.3 0 285.7 0 257C0 228.3 0 199.7 0 171.2C0 142.7 0 114.3 0 85.8C0 57.3 0 28.7 0 14.3L0 0Z" fill="#660081"></path><path d="M50 0L52.3 14.3C54.7 28.7 59.3 57.3 62.2 85.8C65 114.3 66 142.7 62.5 171.2C59 199.7 51 228.3 50.2 257C49.3 285.7 55.7 314.3 60.5 343C65.3 371.7 68.7 400.3 69.3 428.8C70 457.3 68 485.7 67.2 514.2C66.3 542.7 66.7 571.3 66.8 585.7L67 600L0 600L0 585.7C0 571.3 0 542.7 0 514.2C0 485.7 0 457.3 0 428.8C0 400.3 0 371.7 0 343C0 314.3 0 285.7 0 257C0 228.3 0 199.7 0 171.2C0 142.7 0 114.3 0 85.8C0 57.3 0 28.7 0 14.3L0 0Z" fill="#5f09b0"></path><path d="M41 0L42.2 14.3C43.3 28.7 45.7 57.3 45.7 85.8C45.7 114.3 43.3 142.7 40.8 171.2C38.3 199.7 35.7 228.3 34.7 257C33.7 285.7 34.3 314.3 36 343C37.7 371.7 40.3 400.3 42.3 428.8C44.3 457.3 45.7 485.7 46.7 514.2C47.7 542.7 48.3 571.3 48.7 585.7L49 600L0 600L0 585.7C0 571.3 0 542.7 0 514.2C0 485.7 0 457.3 0 428.8C0 400.3 0 371.7 0 343C0 314.3 0 285.7 0 257C0 228.3 0 199.7 0 171.2C0 142.7 0 114.3 0 85.8C0 57.3 0 28.7 0 14.3L0 0Z" fill="#1f25e5"></path></svg>